<?xml version="1.0" encoding="UTF-8" standalone="no"?>
<!-- Created with Inkscape (http://www.inkscape.org/) -->

<svg
   xmlns:dc="http://purl.org/dc/elements/1.1/"
   xmlns:cc="http://creativecommons.org/ns#"
   xmlns:rdf="http://www.w3.org/1999/02/22-rdf-syntax-ns#"
   xmlns:svg="http://www.w3.org/2000/svg"
   xmlns="http://www.w3.org/2000/svg"
   xmlns:sodipodi="http://sodipodi.sourceforge.net/DTD/sodipodi-0.dtd"
   xmlns:inkscape="http://www.inkscape.org/namespaces/inkscape"
   width="10mm"
   height="20mm"
   viewBox="0 0 0 198.4252"
   id="svg3986"
   version="1.1"
   inkscape:version="0.91 r13725"
   sodipodi:docname="base.svg">
  <defs
     id="defs3988" />
  <sodipodi:namedview
     id="base"
     pagecolor="#ffffff"
     bordercolor="#666666"
     borderopacity="1.0"
     inkscape:pageopacity="0.0"
     inkscape:pageshadow="2"
     inkscape:zoom="3.959798"
     inkscape:cx="-49.720818"
     inkscape:cy="5.5980872"
     inkscape:document-units="px"
     inkscape:current-layer="layer1"
     showgrid="true"
     showguides="true"
     objecttolerance="20"
     guidetolerance="10000"
     inkscape:snap-perpendicular="true"
     inkscape:snap-tangential="true"
     inkscape:window-width="1440"
     inkscape:window-height="838"
     inkscape:window-x="-8"
     inkscape:window-y="-8"
     inkscape:window-maximized="1">
    <inkscape:grid
       type="xygrid"
       id="grid4078"
       spacingx="1.1"
       originx="0"
       dotted="false"
       originy="0.9"
       spacingy="1.4" />
  </sodipodi:namedview>
  <metadata
     id="metadata3991">
    <rdf:RDF>
      <cc:Work
         rdf:about="">
        <dc:format>image/svg+xml</dc:format>
        <dc:type
           rdf:resource="http://purl.org/dc/dcmitype/StillImage" />
        <dc:title></dc:title>
      </cc:Work>
    </rdf:RDF>
  </metadata>
  <g
     inkscape:label="Ebene 1"
     inkscape:groupmode="layer"
     id="layer1"
     transform="translate(0,-981.49617)">
    <path
       style="fill-opacity:1"
       d="m 35.433071,984.6696 -3.75,3.59375 -3.75,3.5918 0,1.69922 -0.004,0.004 0,7.72203 0,7.7226 3.75,3.4102 3.75,3.4102 0,-14.461 c 0,-0.1238 -0.002,-0.2265 -0.002,-0.3495 7.6e-4,-0.3854 0.006,-0.7164 0.006,-1.10909 l 0,-15.23412 z"
       id="path3944"
       inkscape:connector-curvature="0" />
    <path
       style="fill-opacity:1"
       d="m 0,1015.8234 3.75,-3.5938 3.749998,-3.5918 0,-1.6992 0.004,0 0,-7.72222 0,-7.72247 -3.749998,-3.41016 -3.75,-3.41015 0,14.46079 c 0,0.12379 0.002,0.22648 0.002,0.34957 C 0.00524,999.86948 0,1000.2004 0,1000.5931 l 0,15.2342 z"
       id="path3944-6"
       inkscape:connector-curvature="0" />
    <path
       style="fill-opacity:1"
       d="m 2.1393358,981.68031 3.593749,3.75 3.5918,3.75 1.6992202,0 0.004,0.004 7.72265,0 7.72266,0 3.41017,-3.75 3.41015,-3.75 -14.46095,0 c -0.12379,0 -0.22653,0.002 -0.34961,0.002 -0.38554,-7.6e-4 -0.71658,-0.006 -1.10937,-0.006 l -15.2343792,0 z"
       id="path3944-7-8"
       inkscape:connector-curvature="0" />
    <path
       style="fill-opacity:1"
       d="m 5.7679439,1018.8042 -2.42641,-1.8749 2.42641,-1.875 2.42641,-1.875 9.5221801,0 9.522173,0 2.42642,1.875 2.42641,1.875 -2.42641,1.8749 -2.42642,1.875 -9.522173,0 -9.5221801,0 -2.42641,-1.875 z"
       id="path4091"
       inkscape:connector-curvature="0" />
    <path
       style="fill-opacity:1"
       d="m 35.561753,1049.363 -3.75,-3.5937 -3.75,-3.5918 0,-1.6993 -0.004,0 0,-7.722 0,-7.7226 3.75,-3.4102 3.75,-3.4102 0,14.461 c 0,0.1238 -0.002,0.2265 -0.002,0.3495 7.6e-4,0.3854 0.006,0.7164 0.006,1.1091 l 0,15.2341 z"
       id="path3944-3"
       inkscape:connector-curvature="0" />
    <path
       style="fill-opacity:1"
       d="m 0.12868224,1018.2092 3.74999996,3.5938 3.749998,3.5918 0,1.6992 0.004,0 0,7.7222 0,7.7225 -3.749998,3.4102 -3.74999996,3.4101 0,-14.4608 c 0,-0.1238 0.002,-0.2265 0.002,-0.3495 -7.6e-4,-0.3856 -0.006,-0.7165 -0.006,-1.1092 l 0,-15.2342 z"
       id="path3944-6-0"
       inkscape:connector-curvature="0" />
    <path
       style="fill-opacity:1"
       d="m 2.268018,1052.3523 3.593749,-3.75 3.5918,-3.75 1.69922,0 0.004,0 7.72265,0 7.72266,0 3.41017,3.75 3.41015,3.75 -14.46095,0 c -0.12379,0 -0.22653,0 -0.34961,0 -0.38554,8e-4 -0.71658,0.01 -1.10937,0.01 l -15.234379,0 z"
       id="path3944-7-8-9"
       inkscape:connector-curvature="0" />
  </g>
</svg>
