<?xml version="1.0" encoding="utf-8"?>
<!-- Generated by IcoMoon.io -->
<!DOCTYPE svg PUBLIC "-//W3C//DTD SVG 1.1//EN" "http://www.w3.org/Graphics/SVG/1.1/DTD/svg11.dtd">
<svg version="1.1" xmlns="http://www.w3.org/2000/svg" xmlns:xlink="http://www.w3.org/1999/xlink" width="11" height="16" viewBox="0 0 11 16">
<path fill="#444444" d="M9.435 0.638l-1.724 1.652v0.391l-0.001 0.001v3.551l1.724 1.568v-3.325c0-0.028-0-0.052-0-0.080 0-0.089 0.001-0.165 0.001-0.255v-3.502z"></path>
<path fill="#444444" d="M1.289 7.8l1.724-1.652v-0.391h0.001v-3.551l-1.724-1.568v3.324c0 0.028 0 0.052 0 0.080-0 0.089-0.001 0.165-0.001 0.255v3.502z"></path>
<path fill="#444444" d="M1.781-0.049l1.652 1.724h0.391l0.001 0.001h3.551l1.568-1.724h-3.325c-0.028 0-0.052 0-0.080 0-0.089-0-0.165-0.001-0.255-0.001h-3.502z"></path>
<path fill="#444444" d="M9.465 15.511l-1.724-1.652v-0.391h-0.001v-3.551l1.724-1.568v3.325c0 0.028-0 0.052-0 0.080 0 0.089 0.001 0.165 0.001 0.255v3.502z"></path>
<path fill="#444444" d="M1.319 8.349l1.724 1.652v0.391h0.001v3.551l-1.724 1.568v-3.324c0-0.028 0-0.052 0-0.080-0-0.089-0.001-0.165-0.001-0.255v-3.502z"></path>
<path fill="#444444" d="M1.811 16.198l1.652-1.724h3.942l1.568 1.724h-3.325c-0.028 0-0.052 0-0.080 0-0.089 0-0.165 0.002-0.255 0.002h-3.502z"></path>
</svg>
